# Blender v2.93.6 OBJ File: ''
# www.blender.org
mtllib dollhouse.mtl
o Cube_Cube.001
v 1.000000 -1.000000 -1.000000
v 1.000000 1.000000 -1.000000
v 1.000000 -1.000000 1.000000
v 1.000000 1.000000 1.000000
v -1.000000 -1.000000 -1.000000
v -1.000000 1.000000 -1.000000
v -1.000000 -1.000000 1.000000
v -1.000000 1.000000 1.000000
v 0.950000 -0.950000 -0.950000
v 0.950000 0.950000 -0.950000
v 0.950000 -0.950000 0.950000
v 0.950000 0.950000 0.950000
v -0.950000 -0.950000 -0.950000
v -0.950000 0.950000 -0.950000
v -0.950000 -0.950000 0.950000
v -0.950000 0.950000 0.950000
v 1.000000 1.500000 0.000000
v -1.000000 1.500000 0.000000
v -1.000000 -0.900000 -0.400000
v -1.000000 0.100000 -0.400000
v -1.000000 -0.900000 0.400000
v -1.000000 0.100000 0.400000
v -0.950000 -0.900000 -0.400000
v -0.950000 0.100000 -0.400000
v -0.950000 -0.900000 0.400000
v -0.950000 0.100000 0.400000
vt 0.375000 0.250000
vt 0.625000 0.250000
vt 0.625000 0.500000
vt 0.375000 0.500000
vt 0.625000 0.000000
vt 0.625000 0.125000
vt 0.375000 0.000000
vt 0.375000 0.750000
vt 0.625000 0.750000
vt 0.625000 1.000000
vt 0.375000 1.000000
vt 0.625000 0.625000
vt 0.386959 0.675000
vt 0.506552 0.675000
vt 0.506552 0.575000
vt 0.386959 0.575000
vt 0.875000 0.625000
vt 0.875000 0.750000
vt 0.375000 0.000000
vt 0.375000 0.250000
vt 0.625000 0.250000
vt 0.625000 0.000000
vt 0.375000 0.500000
vt 0.625000 0.500000
vt 0.381579 0.677632
vt 0.375000 0.750000
vt 0.625000 0.750000
vt 0.381579 0.572368
vt 0.513158 0.572368
vt 0.513158 0.677632
vt 0.375000 1.000000
vt 0.625000 1.000000
vt 0.125000 0.500000
vt 0.125000 0.750000
vt 0.875000 0.750000
vt 0.875000 0.500000
vt 0.875000 0.500000
vt 0.125000 0.500000
vt 0.125000 0.750000
vt 0.375000 0.368750
vt 0.375000 0.375000
vt 0.625000 0.375000
vt 0.625000 0.368750
vt 0.625000 0.881250
vt 0.625000 0.875000
vt 0.375000 0.875000
vt 0.375000 0.881250
vt 0.250000 0.750000
vt 0.250000 0.500000
vt 0.243750 0.500000
vt 0.243750 0.750000
vt 0.756250 0.500000
vt 0.750000 0.500000
vt 0.750000 0.750000
vt 0.756250 0.750000
vn 0.0000 0.0000 1.0000
vn 1.0000 0.0000 0.0000
vn 0.0000 0.0000 -1.0000
vn -1.0000 0.0000 0.0000
vn 0.0000 0.8944 -0.4472
vn 0.0000 1.0000 0.0000
vn 0.0000 -1.0000 0.0000
vn 0.0000 0.8944 0.4472
usemtl None
s off
f 3/1/1 4/2/1 8/3/1 7/4/1
f 2/5/2 17/6/2 4/2/2 3/1/2 1/7/2
f 5/8/3 6/9/3 2/10/3 1/11/3
f 7/4/4 8/3/4 18/12/4 6/9/4 5/8/4 19/13/4 20/14/4 22/15/4 21/16/4
f 19/13/4 5/8/4 7/4/4 21/16/4
f 18/12/5 17/17/5 2/18/5 6/9/5
f 9/19/4 11/20/4 12/21/4 10/22/4
f 11/20/3 15/23/3 16/24/3 12/21/3
f 23/25/2 13/26/2 14/27/2 16/24/2 15/23/2 25/28/2 26/29/2 24/30/2
f 25/28/2 15/23/2 13/26/2 23/25/2
f 13/26/1 9/31/1 10/32/1 14/27/1
f 11/33/6 9/34/6 13/26/6 15/23/6
f 16/24/7 14/27/7 10/35/7 12/36/7
f 8/3/8 4/37/8 17/17/8 18/12/8
f 3/38/7 7/4/7 5/8/7 1/39/7
f 25/40/3 21/41/3 22/42/3 26/43/3
f 24/44/1 20/45/1 19/46/1 23/47/1
f 19/48/6 21/49/6 25/50/6 23/51/6
f 26/52/7 22/53/7 20/54/7 24/55/7
